# xmcd
#
# Track frame offsets:
# 150
# 18210
# 40512
# 59881
# 78069
# 93234
# 111093
# 131930
# 151965
# 170982
# 191599
# 216118
# 238439
# 258676
# 279714
# 303375
#
# Disc length: 4275 seconds
#
# Revision: 1
# Processed by: cddbd v1.5.1PL0 Copyright (c) Steve Scherf et al.
# Submitted via: Easy CD Ripper v2.26
#
DISCID=e910b110
DTITLE=周杰伦 - 七里香www.yeahqing.com
DYEAR=2004
DGENRE=Blues
TTITLE0=我的地盘 - 周杰伦
TTITLE1=七里香 - 周杰伦
TTITLE2=籍口 - 周杰伦
TTITLE3=外婆 - 周杰伦
TTITLE4=将军 - 周杰伦
TTITLE5=搁浅 - 周杰伦
TTITLE6=乱舞春秋 - 周杰伦
TTITLE7=困兽之门 - 周杰伦
TTITLE8=园游会 - 周杰伦
TTITLE9=止战之伤 - 周杰伦
TTITLE10=轨迹 - 周杰伦
TTITLE11=断了的弦 - 周杰伦
TTITLE12=晴天 - 周杰伦
TTITLE13=三年二班 - 周杰伦
TTITLE14=东风破 - 周杰伦
TTITLE15=你听得到 - 周杰伦
EXTD=七里香
EXTT0=吉川库浪诚意奉献！www.yeahqing.com
EXTT1=吉川库浪诚意奉献！www.yeahqing.com
EXTT2=吉川库浪诚意奉献！www.yeahqing.com
EXTT3=吉川库浪诚意奉献！www.yeahqing.com
EXTT4=吉川库浪诚意奉献！www.yeahqing.com
EXTT5=吉川库浪诚意奉献！www.yeahqing.com
EXTT6=吉川库浪诚意奉献！www.yeahqing.com
EXTT7=吉川库浪诚意奉献！www.yeahqing.com
EXTT8=吉川库浪诚意奉献！www.yeahqing.com
EXTT9=吉川库浪诚意奉献！www.yeahqing.com
EXTT10=吉川库浪诚意奉献！www.yeahqing.com
EXTT11=吉川库浪诚意奉献！www.yeahqing.com
EXTT12=吉川库浪诚意奉献！www.yeahqing.com
EXTT13=吉川库浪诚意奉献！www.yeahqing.com
EXTT14=吉川库浪诚意奉献！www.yeahqing.com
EXTT15=吉川库浪诚意奉献！www.yeahqing.com
PLAYORDER=
